<?xml version="1.0" standalone="no"?><svg xmlns:xlink="http://www.w3.org/1999/xlink" xmlns="http://www.w3.org/2000/svg" viewBox="0 0 2000 2000.0000000000002" preserveAspectRatio="xMaxYMax slice"><g transform="scale(4.351610095735422)"><rect x="0" y="0" width="459.6" height="459.6" fill="#000000"/><rect x="57.45" y="0" width="19.15" height="19.15" fill="#0846a0"/><polygon points="57.45,0 76.6,19.15 57.45,19.15" fill="#031734"/><rect x="248.95000000000002" y="0" width="19.150000000000002" height="19.150000000000002" fill="#000000"/><rect x="248.95" y="0" width="9.58" height="9.58" fill="#020e1f"/><polygon points="258.53,0 258.53,9.58 248.95,9.58" fill="#073982"/><rect x="268.1" y="0" width="19.150000000000002" height="19.150000000000002" fill="#000000"/><rect x="277.68" y="9.58" width="9.58" height="9.58" fill="#052b63"/><path d="M 277.68 19.16 A 9.58 9.58 0 0 0 287.26 9.58 L 277.68 9.58L277.68 19.16" fill="#031d42"/><rect x="287.25000000000006" y="0" width="19.150000000000002" height="19.150000000000002" fill="#000000"/><rect x="363.85" y="0" width="19.150000000000002" height="19.150000000000002" fill="#000000"/><rect x="0" y="19.150000000000002" width="19.150000000000002" height="19.150000000000002" fill="#000000"/><rect x="0" y="19.15" width="9.58" height="9.58" fill="#0848a5"/><polygon points="9.58,19.15 9.58,28.729999999999997 0,28.729999999999997" fill="#021127"/><rect x="9.58" y="19.15" width="9.58" height="9.58" fill="#0c66ea"/><polygon points="9.58,19.15 19.16,28.729999999999997 9.58,28.729999999999997" fill="#0b5bd2"/><rect x="19.15" y="19.15" width="19.15" height="19.15" fill="#0d6af4"/><rect x="19.15" y="19.15" width="19.15" height="19.15" fill="#073f91"/><rect x="57.45" y="19.15" width="19.15" height="19.15" fill="#0a58cb"/><rect x="57.45" y="19.15" width="19.15" height="19.15" fill="#042049"/><rect x="76.60000000000001" y="19.150000000000002" width="19.150000000000002" height="19.150000000000002" fill="#000000"/><rect x="86.18" y="19.15" width="9.58" height="9.58" fill="#0c6af3"/><path d="M 86.18 19.15 A 9.58 9.58 0 0 0 95.76 28.729999999999997 L 95.76 19.15L86.18 19.15" fill="#0950b8"/><rect x="76.6" y="28.73" width="9.58" height="9.58" fill="#0d6efd"/><path d="M 76.6 28.73 A 9.58 9.58 0 0 1 86.17999999999999 38.31 L 76.6 38.31L76.6 28.73" fill="#01060d"/><rect x="268.1" y="19.150000000000002" width="19.150000000000002" height="19.150000000000002" fill="#000000"/><rect x="287.25000000000006" y="19.150000000000002" width="19.150000000000002" height="19.150000000000002" fill="#000000"/><rect x="296.83" y="19.15" width="9.58" height="9.58" fill="#03193a"/><path d="M 296.83 19.15 A 9.58 9.58 0 0 1 306.40999999999997 28.729999999999997 L 304.015 28.729999999999997 A 7.1850000000000005 7.1850000000000005 0 0 0 296.83 21.544999999999998" fill="#0c69f1"/><rect x="296.83" y="28.73" width="9.58" height="9.58" fill="#02132c"/><path d="M 296.83 38.31 A 9.58 9.58 0 0 0 306.40999999999997 28.73 L 304.015 28.73 A 7.1850000000000005 7.1850000000000005 0 0 1 296.83 35.915" fill="#073f92"/><rect x="306.40000000000003" y="19.150000000000002" width="19.150000000000002" height="19.150000000000002" fill="#000000"/><rect x="306.4" y="19.15" width="9.58" height="9.58" fill="#010711"/><circle cx="311.19" cy="23.939999999999998" r="4.79" fill="#08459e"/><rect x="315.98" y="19.15" width="9.58" height="9.58" fill="#031b3d"/><rect x="315.98" y="19.15" width="9.58" height="9.58" fill="#06306f"/><rect x="440.45000000000005" y="19.150000000000002" width="19.150000000000002" height="19.150000000000002" fill="#000000"/><rect x="450.03" y="28.73" width="9.58" height="9.58" fill="#000307"/><polygon points="450.03,28.73 459.60999999999996,38.31 450.03,38.31" fill="#0a53bf"/><rect x="114.9" y="38.300000000000004" width="19.150000000000002" height="19.150000000000002" fill="#000000"/><rect x="114.9" y="47.88" width="9.58" height="9.58" fill="#063478"/><polygon points="114.9,47.88 124.48,47.88 124.48,57.46" fill="#094fb6"/><rect x="124.48" y="47.88" width="9.58" height="9.58" fill="#04224d"/><polygon points="124.48,47.88 134.06,57.46 124.48,57.46" fill="#000307"/><rect x="134.05" y="38.300000000000004" width="19.150000000000002" height="19.150000000000002" fill="#000000"/><rect x="191.50000000000003" y="38.300000000000004" width="19.150000000000002" height="19.150000000000002" fill="#000000"/><rect x="191.5" y="38.3" width="9.58" height="9.58" fill="#031e44"/><path d="M 191.5 38.3 A 9.58 9.58 0 0 0 201.08 47.879999999999995 L 201.08 38.3L191.5 38.3" fill="#042049"/><rect x="201.08" y="38.3" width="9.58" height="9.58" fill="#042454"/><path d="M 201.08 47.879999999999995 A 9.58 9.58 0 0 0 210.66000000000003 38.3 L 201.08 38.3L201.08 47.879999999999995" fill="#0a56c6"/><rect x="229.8" y="38.300000000000004" width="19.150000000000002" height="19.150000000000002" fill="#000000"/><rect x="306.40000000000003" y="38.300000000000004" width="19.150000000000002" height="19.150000000000002" fill="#000000"/><rect x="325.55" y="38.3" width="19.15" height="19.15" fill="#06377d"/><polygon points="325.55,38.3 344.7,57.449999999999996 325.55,57.449999999999996" fill="#0d6efd"/><rect x="363.85" y="38.3" width="19.15" height="19.15" fill="#03193a"/><path d="M 363.85 57.449999999999996 A 19.15 19.15 0 0 1  383 38.3 L 363.85 57.449999999999996 A 19.15 19.15 0 0 0 383 38.3" fill="#04224f"/><rect x="440.45000000000005" y="38.300000000000004" width="19.150000000000002" height="19.150000000000002" fill="#000000"/><rect x="440.45" y="38.3" width="9.58" height="9.58" fill="#073f91"/><path d="M 440.45 38.3 A 9.58 9.58 0 0 0 450.03 47.879999999999995 L 450.03 38.3L440.45 38.3" fill="#084093"/><rect x="450.03" y="38.3" width="9.58" height="9.58" fill="#094db1"/><path d="M 450.03 47.879999999999995 A 9.58 9.58 0 0 0 459.60999999999996 38.3 L 450.03 38.3L450.03 47.879999999999995" fill="#02142d"/><rect x="0" y="57.45" width="19.150000000000002" height="19.150000000000002" fill="#000000"/><rect x="9.58" y="57.45" width="9.58" height="9.58" fill="#0b5bd0"/><path d="M 9.58 57.45 A 9.58 9.58 0 0 0 19.16 67.03 L 19.16 57.45L9.58 57.45" fill="#0d6bf7"/><rect x="0" y="67.03" width="9.58" height="9.58" fill="#084094"/><path d="M 0 67.03 A 9.58 9.58 0 0 1 9.58 76.61 L 0 76.61L0 67.03" fill="#063272"/><rect x="95.75000000000001" y="57.45" width="19.150000000000002" height="19.150000000000002" fill="#000000"/><rect x="95.75" y="57.45" width="9.58" height="9.58" fill="#01050b"/><path d="M 95.75 67.03 A 9.58 9.58 0 0 0 105.33 57.45 L 95.75 57.45L95.75 67.03" fill="#08439b"/><rect x="114.9" y="57.45" width="19.150000000000002" height="19.150000000000002" fill="#000000"/><rect x="114.9" y="57.45" width="9.58" height="9.58" fill="#0d6cf9"/><path d="M 114.9 67.03 A 9.58 9.58 0 0 1 124.48 57.45 L 124.48 59.845000000000006 A 7.1850000000000005 7.1850000000000005 0 0 0 117.295 67.03" fill="#0d6cf9"/><rect x="114.9" y="67.03" width="9.58" height="9.58" fill="#063374"/><path d="M 114.9 67.03 A 9.58 9.58 0 0 0 124.48 76.61 L 124.48 74.215 A 7.1850000000000005 7.1850000000000005 0 0 1 117.295 67.03" fill="#08459f"/><rect x="124.48" y="67.03" width="9.58" height="9.58" fill="#05275a"/><path d="M 124.48 76.61 A 9.58 9.58 0 0 0 134.06 67.03 L 131.665 67.03 A 7.1850000000000005 7.1850000000000005 0 0 1 124.48 74.215" fill="#0a57c8"/><rect x="153.20000000000002" y="57.45" width="19.150000000000002" height="19.150000000000002" fill="#000000"/><rect x="153.2" y="67.03" width="9.58" height="9.58" fill="#031c41"/><path d="M 153.2 67.03 A 9.58 9.58 0 0 0 162.78 76.61 L 162.78 67.03L153.2 67.03" fill="#031735"/><rect x="210.65" y="57.45" width="19.15" height="19.15" fill="#04224f"/><polygon points="210.65,57.45 229.8,76.6 210.65,76.6" fill="#0c67ed"/><rect x="229.8" y="57.45" width="19.15" height="19.15" fill="#0d6cf7"/><path d="M 229.8 76.6 A 19.15 19.15 0 0 1  248.95000000000002 57.45 L 248.95000000000002 76.6L229.8 76.6" fill="#063376"/><rect x="248.95000000000002" y="57.45" width="19.150000000000002" height="19.150000000000002" fill="#000000"/><rect x="248.95" y="57.45" width="9.58" height="9.58" fill="#0b59ce"/><path d="M 248.95 57.45 A 9.58 9.58 0 0 0 258.53 67.03 L 258.53 57.45L248.95 57.45" fill="#031633"/><rect x="258.53" y="57.45" width="9.58" height="9.58" fill="#063171"/><path d="M 258.53 67.03 A 9.58 9.58 0 0 0 268.10999999999996 57.45 L 258.53 57.45L258.53 67.03" fill="#0c69f2"/><rect x="363.85" y="57.45" width="19.150000000000002" height="19.150000000000002" fill="#000000"/><rect x="363.85" y="57.45" width="9.58" height="9.58" fill="#084297"/><polygon points="373.43,57.45 373.43,67.03 363.85,67.03" fill="#0c66eb"/><rect x="373.43" y="57.45" width="9.58" height="9.58" fill="#094db0"/><polygon points="373.43,57.45 383.01,57.45 373.43,67.03" fill="#05275a"/><rect x="373.43" y="67.03" width="9.58" height="9.58" fill="#0b59ce"/><polygon points="373.43,67.03 383.01,76.61 373.43,76.61" fill="#042453"/><rect x="0" y="76.60000000000001" width="19.150000000000002" height="19.150000000000002" fill="#000000"/><rect x="0" y="76.6" width="9.58" height="9.58" fill="#094fb5"/><polygon points="9.58,76.6 9.58,86.17999999999999 0,86.17999999999999" fill="#000308"/><rect x="134.05" y="76.60000000000001" width="19.150000000000002" height="19.150000000000002" fill="#000000"/><rect x="134.05" y="86.18" width="9.58" height="9.58" fill="#0949a9"/><polygon points="134.05,86.18 143.63000000000002,86.18 143.63000000000002,95.76" fill="#0b5acf"/><rect x="172.35000000000002" y="76.60000000000001" width="19.150000000000002" height="19.150000000000002" fill="#000000"/><rect x="210.65000000000003" y="76.60000000000001" width="19.150000000000002" height="19.150000000000002" fill="#000000"/><rect x="229.8" y="76.60000000000001" width="19.150000000000002" height="19.150000000000002" fill="#000000"/><rect x="239.38" y="76.6" width="9.58" height="9.58" fill="#05285c"/><path d="M 239.38 86.17999999999999 A 9.58 9.58 0 0 1  248.96 76.6 L 248.96 86.17999999999999L239.38 86.17999999999999" fill="#073b88"/><rect x="229.8" y="86.18" width="9.58" height="9.58" fill="#0c65e9"/><path d="M 229.8 95.76 A 9.58 9.58 0 0 0 239.38000000000002 86.18 L 229.8 86.18L229.8 95.76" fill="#000103"/><rect x="248.95000000000002" y="76.60000000000001" width="19.150000000000002" height="19.150000000000002" fill="#000000"/><rect x="258.53" y="76.6" width="9.58" height="9.58" fill="#0c64e5"/><polygon points="258.53,76.6 268.10999999999996,86.17999999999999 258.53,86.17999999999999" fill="#010b18"/><rect x="258.53" y="86.18" width="9.58" height="9.58" fill="#0a57c8"/><polygon points="258.53,86.18 268.10999999999996,86.18 268.10999999999996,95.76" fill="#094fb5"/><rect x="268.1" y="76.60000000000001" width="19.150000000000002" height="19.150000000000002" fill="#000000"/><rect x="268.1" y="76.6" width="9.58" height="9.58" fill="#052b62"/><path d="M 268.1 86.17999999999999 A 9.58 9.58 0 0 1  277.68 76.6 L 277.68 86.17999999999999L268.1 86.17999999999999" fill="#073f90"/><rect x="277.68" y="76.6" width="9.58" height="9.58" fill="#042453"/><path d="M 277.68 76.6 A 9.58 9.58 0 0 1 287.26 86.17999999999999 L 277.68 86.17999999999999L277.68 76.6" fill="#0b61df"/><rect x="402.15000000000003" y="76.60000000000001" width="19.150000000000002" height="19.150000000000002" fill="#000000"/><rect x="402.15" y="86.18" width="9.58" height="9.58" fill="#052a60"/><polygon points="402.15,86.18 411.72999999999996,86.18 411.72999999999996,95.76" fill="#073d8c"/><rect x="19.150000000000002" y="95.75000000000001" width="19.150000000000002" height="19.150000000000002" fill="#000000"/><rect x="19.15" y="95.75" width="9.58" height="9.58" fill="#0a58c9"/><circle cx="23.939999999999998" cy="100.54" r="4.79" fill="#063171"/><rect x="19.15" y="105.33" width="9.58" height="9.58" fill="#084195"/><circle cx="23.939999999999998" cy="110.12" r="4.79" fill="#0948a6"/><rect x="28.73" y="105.33" width="9.58" height="9.58" fill="#010c1b"/><rect x="28.73" y="105.33" width="9.58" height="9.58" fill="#0a55c3"/><rect x="95.75000000000001" y="95.75000000000001" width="19.150000000000002" height="19.150000000000002" fill="#000000"/><rect x="95.75" y="95.75" width="9.58" height="9.58" fill="#0a57c9"/><polygon points="105.33,95.75 105.33,105.33 95.75,105.33" fill="#031b3e"/><rect x="114.9" y="95.75000000000001" width="19.150000000000002" height="19.150000000000002" fill="#000000"/><rect x="134.05" y="95.75000000000001" width="19.150000000000002" height="19.150000000000002" fill="#000000"/><rect x="344.70000000000005" y="95.75000000000001" width="19.150000000000002" height="19.150000000000002" fill="#000000"/><rect x="354.28" y="95.75" width="9.58" height="9.58" fill="#04214b"/><polygon points="354.28,95.75 363.85999999999996,105.33 354.28,105.33" fill="#000000"/><rect x="383.00000000000006" y="95.75000000000001" width="19.150000000000002" height="19.150000000000002" fill="#000000"/><rect x="440.45000000000005" y="95.75000000000001" width="19.150000000000002" height="19.150000000000002" fill="#000000"/><rect x="440.45" y="95.75" width="9.58" height="9.58" fill="#073c8a"/><polygon points="450.03,95.75 450.03,105.33 440.45,105.33" fill="#041e45"/><rect x="450.03" y="95.75" width="9.58" height="9.58" fill="#063477"/><polygon points="450.03,95.75 459.60999999999996,105.33 450.03,105.33" fill="#0950b7"/><rect x="440.45" y="105.33" width="9.58" height="9.58" fill="#073e8e"/><polygon points="440.45,105.33 450.03,105.33 440.45,114.91" fill="#021128"/><rect x="38.300000000000004" y="114.9" width="19.150000000000002" height="19.150000000000002" fill="#000000"/><rect x="47.88" y="114.9" width="9.58" height="9.58" fill="#0b5fd9"/><polygon points="47.88,114.9 57.46,124.48 47.88,124.48" fill="#0948a6"/><rect x="57.45" y="114.9" width="19.150000000000002" height="19.150000000000002" fill="#000000"/><rect x="67.03" y="114.9" width="9.58" height="9.58" fill="#094eb4"/><path d="M 67.03 114.9 A 9.58 9.58 0 0 0 76.61 124.48 L 76.61 114.9L67.03 114.9" fill="#094aaa"/><rect x="114.9" y="114.9" width="19.150000000000002" height="19.150000000000002" fill="#000000"/><rect x="114.9" y="124.48" width="9.58" height="9.58" fill="#094caf"/><path d="M 114.9 124.48 A 9.58 9.58 0 0 0 124.48 134.06 L 124.48 124.48L114.9 124.48" fill="#0c64e6"/><rect x="153.20000000000002" y="114.9" width="19.150000000000002" height="19.150000000000002" fill="#000000"/><rect x="162.78" y="114.9" width="9.58" height="9.58" fill="#052658"/><polygon points="162.78,114.9 172.36,114.9 162.78,124.48" fill="#000308"/><rect x="210.65000000000003" y="114.9" width="19.150000000000002" height="19.150000000000002" fill="#000000"/><rect x="210.65" y="114.9" width="9.58" height="9.58" fill="#01040a"/><path d="M 210.65 124.48 A 9.58 9.58 0 0 0 220.23000000000002 114.9 L 210.65 114.9L210.65 124.48" fill="#041e45"/><rect x="220.23" y="114.9" width="9.58" height="9.58" fill="#05295e"/><path d="M 220.23 114.9 A 9.58 9.58 0 0 0 229.81 124.48 L 229.81 114.9L220.23 114.9" fill="#041e45"/><rect x="268.1" y="114.9" width="19.150000000000002" height="19.150000000000002" fill="#000000"/><rect x="268.1" y="114.9" width="9.58" height="9.58" fill="#021127"/><path d="M 268.1 124.48 A 9.58 9.58 0 0 0 277.68 114.9 L 268.1 114.9L268.1 124.48" fill="#000204"/><rect x="306.4" y="114.9" width="19.15" height="19.15" fill="#010711"/><polygon points="306.4,114.9 325.54999999999995,114.9 306.4,134.05" fill="#0c64e6"/><rect x="363.85" y="114.9" width="19.150000000000002" height="19.150000000000002" fill="#000000"/><rect x="363.85" y="114.9" width="9.58" height="9.58" fill="#06367d"/><polygon points="373.43,114.9 373.43,124.48 363.85,124.48" fill="#0d6dfb"/><rect x="402.15000000000003" y="114.9" width="19.150000000000002" height="19.150000000000002" fill="#000000"/><rect x="402.15" y="124.48" width="9.58" height="9.58" fill="#063273"/><path d="M 402.15 134.06 A 9.58 9.58 0 0 0 411.72999999999996 124.48 L 402.15 124.48L402.15 134.06" fill="#031c41"/><rect x="0" y="134.05" width="19.150000000000002" height="19.150000000000002" fill="#000000"/><rect x="9.58" y="134.05" width="9.58" height="9.58" fill="#042049"/><polygon points="9.58,134.05 19.16,143.63000000000002 9.58,143.63000000000002" fill="#02142e"/><rect x="38.300000000000004" y="134.05" width="19.150000000000002" height="19.150000000000002" fill="#000000"/><rect x="38.3" y="143.63" width="9.58" height="9.58" fill="#0d6bf6"/><path d="M 38.3 143.63 A 9.58 9.58 0 0 1 47.879999999999995 153.21 L 38.3 153.21L38.3 143.63" fill="#0c65e8"/><rect x="47.88" y="143.63" width="9.58" height="9.58" fill="#041e44"/><path d="M 47.88 153.21 A 9.58 9.58 0 0 1  57.46 143.63 L 57.46 153.21L47.88 153.21" fill="#0c69f2"/><rect x="57.45" y="134.05" width="19.150000000000002" height="19.150000000000002" fill="#000000"/><rect x="95.75000000000001" y="134.05" width="19.150000000000002" height="19.150000000000002" fill="#000000"/><rect x="105.33" y="134.05" width="9.58" height="9.58" fill="#0948a6"/><path d="M 105.33 143.63000000000002 A 9.58 9.58 0 0 1  114.91 134.05 L 114.91 143.63000000000002L105.33 143.63000000000002" fill="#0a51ba"/><rect x="114.9" y="134.05" width="19.15" height="19.15" fill="#0848a5"/><rect x="114.9" y="134.05" width="19.15" height="19.15" fill="#08449d"/><rect x="134.05" y="134.05" width="19.150000000000002" height="19.150000000000002" fill="#000000"/><rect x="143.63" y="143.63" width="9.58" height="9.58" fill="#02122a"/><path d="M 143.63 153.21 A 9.58 9.58 0 0 0 153.21 143.63 L 150.815 143.63 A 7.1850000000000005 7.1850000000000005 0 0 1 143.63 150.815" fill="#020d1e"/><rect x="153.20000000000002" y="134.05" width="19.150000000000002" height="19.150000000000002" fill="#000000"/><rect x="363.85" y="134.05" width="19.150000000000002" height="19.150000000000002" fill="#000000"/><rect x="421.30000000000007" y="134.05" width="19.150000000000002" height="19.150000000000002" fill="#000000"/><rect x="421.3" y="143.63" width="9.58" height="9.58" fill="#0a51ba"/><path d="M 421.3 153.21 A 9.58 9.58 0 0 1  430.88 143.63 L 430.88 153.21L421.3 153.21" fill="#000205"/><rect x="0" y="153.20000000000002" width="19.150000000000002" height="19.150000000000002" fill="#000000"/><rect x="0" y="153.2" width="9.58" height="9.58" fill="#000307"/><circle cx="4.79" cy="157.98999999999998" r="4.79" fill="#0847a4"/><rect x="19.150000000000002" y="153.20000000000002" width="19.150000000000002" height="19.150000000000002" fill="#000000"/><rect x="76.60000000000001" y="153.20000000000002" width="19.150000000000002" height="19.150000000000002" fill="#000000"/><rect x="76.6" y="153.2" width="9.58" height="9.58" fill="#084092"/><polygon points="86.17999999999999,153.2 86.17999999999999,162.78 76.6,162.78" fill="#0a57c8"/><rect x="248.95000000000002" y="153.20000000000002" width="19.150000000000002" height="19.150000000000002" fill="#000000"/><rect x="248.95" y="153.2" width="9.58" height="9.58" fill="#042452"/><path d="M 248.95 153.2 A 9.58 9.58 0 0 1 258.53 162.78 L 248.95 162.78L248.95 153.2" fill="#0a57c8"/><rect x="258.53" y="153.2" width="9.58" height="9.58" fill="#0d6efd"/><path d="M 258.53 162.78 A 9.58 9.58 0 0 1  268.10999999999996 153.2 L 268.10999999999996 162.78L258.53 162.78" fill="#0c69f1"/><rect x="402.15" y="153.2" width="19.15" height="19.15" fill="#02132b"/><rect x="402.15" y="153.2" width="19.15" height="19.15" fill="#06306d"/><rect x="229.8" y="172.35000000000002" width="19.150000000000002" height="19.150000000000002" fill="#000000"/><rect x="229.8" y="172.35" width="9.58" height="9.58" fill="#063375"/><path d="M 229.8 181.93 A 9.58 9.58 0 0 0 239.38000000000002 172.35 L 229.8 172.35L229.8 181.93" fill="#0d6efd"/><rect x="239.38" y="181.93" width="9.58" height="9.58" fill="#0a54c2"/><path d="M 239.38 191.51000000000002 A 9.58 9.58 0 0 1  248.96 181.93 L 248.96 191.51000000000002L239.38 191.51000000000002" fill="#010b1a"/><rect x="268.1" y="172.35000000000002" width="19.150000000000002" height="19.150000000000002" fill="#000000"/><rect x="277.68" y="172.35" width="9.58" height="9.58" fill="#0a57c9"/><polygon points="277.68,172.35 287.26,181.93 277.68,181.93" fill="#052e6a"/><rect x="268.1" y="181.93" width="9.58" height="9.58" fill="#0b61de"/><polygon points="268.1,181.93 277.68,181.93 268.1,191.51000000000002" fill="#0b5ed8"/><rect x="325.55" y="172.35000000000002" width="19.150000000000002" height="19.150000000000002" fill="#000000"/><rect x="325.55" y="172.35" width="9.58" height="9.58" fill="#08449c"/><path d="M 325.55 181.93 A 9.58 9.58 0 0 0 335.13 172.35 L 325.55 172.35L325.55 181.93" fill="#0847a4"/><rect x="335.13" y="172.35" width="9.58" height="9.58" fill="#021128"/><path d="M 335.13 172.35 A 9.58 9.58 0 0 0 344.71 181.93 L 344.71 172.35L335.13 172.35" fill="#041f48"/><rect x="344.70000000000005" y="172.35000000000002" width="19.150000000000002" height="19.150000000000002" fill="#000000"/><rect x="363.85" y="172.35000000000002" width="19.150000000000002" height="19.150000000000002" fill="#000000"/><rect x="402.15000000000003" y="172.35000000000002" width="19.150000000000002" height="19.150000000000002" fill="#000000"/><rect x="411.73" y="172.35" width="9.58" height="9.58" fill="#01050c"/><path d="M 411.73 181.93 A 9.58 9.58 0 0 0 421.31 172.35 L 411.73 172.35L411.73 181.93" fill="#084297"/><rect x="402.15" y="181.93" width="9.58" height="9.58" fill="#04214c"/><path d="M 402.15 191.51000000000002 A 9.58 9.58 0 0 1  411.72999999999996 181.93 L 411.72999999999996 191.51000000000002L402.15 191.51000000000002" fill="#010813"/><rect x="19.15" y="191.5" width="19.15" height="19.15" fill="#031531"/><rect x="19.15" y="191.5" width="19.15" height="19.15" fill="#0d6dfb"/><rect x="76.60000000000001" y="191.50000000000003" width="19.150000000000002" height="19.150000000000002" fill="#000000"/><rect x="191.5" y="191.5" width="19.15" height="19.15" fill="#0950b7"/><rect x="191.5" y="191.5" width="19.15" height="19.15" fill="#02132b"/><rect x="421.3" y="191.5" width="19.15" height="19.15" fill="#052759"/><path d="M 421.3 191.5 A 19.15 19.15 0 0 0 440.45 210.65 L 440.45 191.5L421.3 191.5" fill="#0948a6"/><rect x="440.45000000000005" y="191.50000000000003" width="19.150000000000002" height="19.150000000000002" fill="#000000"/><rect x="440.45" y="201.08" width="9.58" height="9.58" fill="#073a85"/><polygon points="440.45,201.08 450.03,201.08 450.03,210.66000000000003" fill="#052a60"/><rect x="95.75" y="210.65" width="19.15" height="19.15" fill="#0b5bd0"/><path d="M 95.75 229.8 A 19.15 19.15 0 0 1  114.9 210.65 L 95.75 229.8 A 19.15 19.15 0 0 0 114.9 210.65" fill="#063170"/><rect x="114.9" y="210.65000000000003" width="19.150000000000002" height="19.150000000000002" fill="#000000"/><rect x="124.48" y="210.65" width="9.58" height="9.58" fill="#0a57c7"/><path d="M 124.48 210.65 A 9.58 9.58 0 0 1 134.06 220.23000000000002 L 124.48 220.23000000000002L124.48 210.65" fill="#04204a"/><rect x="124.48" y="220.23" width="9.58" height="9.58" fill="#000409"/><path d="M 124.48 229.81 A 9.58 9.58 0 0 0 134.06 220.23 L 124.48 220.23L124.48 229.81" fill="#05295f"/><rect x="153.20000000000002" y="210.65000000000003" width="19.150000000000002" height="19.150000000000002" fill="#000000"/><rect x="162.78" y="210.65" width="9.58" height="9.58" fill="#031735"/><path d="M 162.78 220.23000000000002 A 9.58 9.58 0 0 1  172.36 210.65 L 172.36 220.23000000000002L162.78 220.23000000000002" fill="#0950b8"/><rect x="162.78" y="220.23" width="9.58" height="9.58" fill="#094fb5"/><path d="M 162.78 220.23 A 9.58 9.58 0 0 0 172.36 229.81 L 172.36 220.23L162.78 220.23" fill="#0b5ed7"/><rect x="229.8" y="210.65000000000003" width="19.150000000000002" height="19.150000000000002" fill="#000000"/><rect x="239.38" y="220.23" width="9.58" height="9.58" fill="#010710"/><path d="M 239.38 229.81 A 9.58 9.58 0 0 0 248.96 220.23 L 239.38 220.23L239.38 229.81" fill="#08459e"/><rect x="287.25000000000006" y="210.65000000000003" width="19.150000000000002" height="19.150000000000002" fill="#000000"/><rect x="296.83" y="210.65" width="9.58" height="9.58" fill="#052d68"/><path d="M 296.83 210.65 A 9.58 9.58 0 0 1 306.40999999999997 220.23000000000002 L 296.83 220.23000000000002L296.83 210.65" fill="#03193a"/><rect x="306.40000000000003" y="210.65000000000003" width="19.150000000000002" height="19.150000000000002" fill="#000000"/><rect x="315.98" y="220.23" width="9.58" height="9.58" fill="#0948a6"/><polygon points="315.98,220.23 325.56,220.23 325.56,229.81" fill="#021228"/><rect x="344.7" y="210.65" width="19.15" height="19.15" fill="#0c64e5"/><polygon points="363.84999999999997,210.65 363.84999999999997,229.8 344.7,229.8" fill="#094eb4"/><rect x="363.85" y="210.65" width="19.15" height="19.15" fill="#0c67ec"/><path d="M 363.85 229.8 A 19.15 19.15 0 0 1  383 210.65 L 363.85 229.8 A 19.15 19.15 0 0 0 383 210.65" fill="#0b5dd5"/><rect x="440.45000000000005" y="210.65000000000003" width="19.150000000000002" height="19.150000000000002" fill="#000000"/><rect x="440.45" y="210.65" width="9.58" height="9.58" fill="#031d44"/><path d="M 440.45 210.65 A 9.58 9.58 0 0 1 450.03 220.23000000000002 L 440.45 220.23000000000002L440.45 210.65" fill="#01040a"/><rect x="450.03" y="220.23" width="9.58" height="9.58" fill="#0a50b9"/><path d="M 450.03 220.23 A 9.58 9.58 0 0 0 459.60999999999996 229.81 L 459.60999999999996 220.23L450.03 220.23" fill="#020d1e"/><rect x="76.60000000000001" y="229.8" width="19.150000000000002" height="19.150000000000002" fill="#000000"/><rect x="86.18" y="239.38" width="9.58" height="9.58" fill="#0b5ace"/><polygon points="86.18,239.38 95.76,239.38 95.76,248.96" fill="#0950b7"/><rect x="134.05" y="229.8" width="19.150000000000002" height="19.150000000000002" fill="#000000"/><rect x="134.05" y="229.8" width="9.58" height="9.58" fill="#063579"/><path d="M 134.05 239.38000000000002 A 9.58 9.58 0 0 1 143.63000000000002 229.8 L 143.63000000000002 232.19500000000002 A 7.1850000000000005 7.1850000000000005 0 0 0 136.44500000000002 239.38000000000002" fill="#000205"/><rect x="143.63" y="239.38" width="9.58" height="9.58" fill="#04214c"/><path d="M 143.63 248.96 A 9.58 9.58 0 0 0 153.21 239.38 L 150.815 239.38 A 7.1850000000000005 7.1850000000000005 0 0 1 143.63 246.565" fill="#0a54c1"/><rect x="229.8" y="229.8" width="19.150000000000002" height="19.150000000000002" fill="#000000"/><rect x="239.38" y="229.8" width="9.58" height="9.58" fill="#05275b"/><polygon points="239.38,229.8 248.96,239.38000000000002 239.38,239.38000000000002" fill="#052d69"/><rect x="287.25000000000006" y="229.8" width="19.150000000000002" height="19.150000000000002" fill="#000000"/><rect x="287.25" y="229.8" width="9.58" height="9.58" fill="#052c64"/><path d="M 287.25 229.8 A 9.58 9.58 0 0 0 296.83 239.38000000000002 L 296.83 229.8L287.25 229.8" fill="#05295f"/><rect x="287.25" y="239.38" width="9.58" height="9.58" fill="#094fb5"/><path d="M 287.25 248.96 A 9.58 9.58 0 0 1  296.83 239.38 L 296.83 248.96L287.25 248.96" fill="#042453"/><rect x="296.83" y="239.38" width="9.58" height="9.58" fill="#0948a6"/><path d="M 296.83 239.38 A 9.58 9.58 0 0 1 306.40999999999997 248.96 L 296.83 248.96L296.83 239.38" fill="#073f91"/><rect x="344.70000000000005" y="229.8" width="19.150000000000002" height="19.150000000000002" fill="#000000"/><rect x="354.28" y="229.8" width="9.58" height="9.58" fill="#052e69"/><polygon points="354.28,229.8 363.85999999999996,229.8 354.28,239.38000000000002" fill="#0a52bc"/><rect x="114.9" y="248.95000000000002" width="19.150000000000002" height="19.150000000000002" fill="#000000"/><rect x="153.2" y="248.95" width="19.15" height="19.15" fill="#010710"/><polygon points="172.35,248.95 172.35,268.09999999999997 153.2,268.09999999999997" fill="#04204a"/><rect x="172.35000000000002" y="248.95000000000002" width="19.150000000000002" height="19.150000000000002" fill="#000000"/><rect x="172.35" y="248.95" width="9.58" height="9.58" fill="#094aab"/><path d="M 172.35 248.95 A 9.58 9.58 0 0 1 181.93 258.53 L 172.35 258.53L172.35 248.95" fill="#041f47"/><rect x="172.35" y="258.53" width="9.58" height="9.58" fill="#0846a1"/><path d="M 172.35 268.10999999999996 A 9.58 9.58 0 0 0 181.93 258.53 L 172.35 258.53L172.35 268.10999999999996" fill="#000102"/><rect x="181.93" y="258.53" width="9.58" height="9.58" fill="#04204a"/><path d="M 181.93 258.53 A 9.58 9.58 0 0 0 191.51000000000002 268.10999999999996 L 191.51000000000002 258.53L181.93 258.53" fill="#031b3d"/><rect x="229.8" y="248.95" width="19.15" height="19.15" fill="#0d6af4"/><path d="M 229.8 268.09999999999997 A 19.15 19.15 0 0 0 248.95000000000002 248.95 L 229.8 248.95L229.8 268.09999999999997" fill="#052e69"/><rect x="248.95" y="248.95" width="19.15" height="19.15" fill="#01050b"/><polygon points="248.95,248.95 268.09999999999997,248.95 248.95,268.09999999999997" fill="#063375"/><rect x="287.25000000000006" y="248.95000000000002" width="19.150000000000002" height="19.150000000000002" fill="#000000"/><rect x="296.83" y="258.53" width="9.58" height="9.58" fill="#020e21"/><path d="M 296.83 268.10999999999996 A 9.58 9.58 0 0 1  306.40999999999997 258.53 L 306.40999999999997 268.10999999999996L296.83 268.10999999999996" fill="#020d1e"/><rect x="306.40000000000003" y="248.95000000000002" width="19.150000000000002" height="19.150000000000002" fill="#000000"/><rect x="306.4" y="248.95" width="9.58" height="9.58" fill="#052b62"/><polygon points="315.97999999999996,248.95 315.97999999999996,258.53 306.4,258.53" fill="#020e1f"/><rect x="315.98" y="248.95" width="9.58" height="9.58" fill="#0b5bd1"/><polygon points="315.98,248.95 325.56,258.53 315.98,258.53" fill="#0949a8"/><rect x="363.85" y="248.95000000000002" width="19.150000000000002" height="19.150000000000002" fill="#000000"/><rect x="363.85" y="248.95" width="9.58" height="9.58" fill="#031633"/><polygon points="373.43,248.95 373.43,258.53 363.85,258.53" fill="#000204"/><rect x="363.85" y="258.53" width="9.58" height="9.58" fill="#08449d"/><polygon points="363.85,258.53 373.43,258.53 363.85,268.10999999999996" fill="#0b5cd4"/><rect x="373.43" y="258.53" width="9.58" height="9.58" fill="#08439a"/><polygon points="373.43,258.53 383.01,258.53 383.01,268.10999999999996" fill="#052c65"/><rect x="440.45000000000005" y="248.95000000000002" width="19.150000000000002" height="19.150000000000002" fill="#000000"/><rect x="440.45" y="248.95" width="9.58" height="9.58" fill="#0950b7"/><polygon points="450.03,248.95 450.03,258.53 440.45,258.53" fill="#094eb3"/><rect x="450.03" y="258.53" width="9.58" height="9.58" fill="#021530"/><polygon points="450.03,258.53 459.60999999999996,258.53 450.03,268.10999999999996" fill="#031c40"/><rect x="0" y="268.1" width="19.150000000000002" height="19.150000000000002" fill="#000000"/><rect x="9.58" y="277.68" width="9.58" height="9.58" fill="#06357a"/><rect x="9.58" y="277.68" width="9.58" height="9.58" fill="#05295f"/><rect x="19.150000000000002" y="268.1" width="19.150000000000002" height="19.150000000000002" fill="#000000"/><rect x="57.45" y="268.1" width="19.150000000000002" height="19.150000000000002" fill="#000000"/><rect x="67.03" y="277.68" width="9.58" height="9.58" fill="#0847a2"/><path d="M 67.03 287.26 A 9.58 9.58 0 0 0 76.61 277.68 L 74.215 277.68 A 7.1850000000000005 7.1850000000000005 0 0 1 67.03 284.865" fill="#020e20"/><rect x="114.9" y="268.1" width="19.150000000000002" height="19.150000000000002" fill="#000000"/><rect x="114.9" y="268.1" width="9.58" height="9.58" fill="#0a53bf"/><path d="M 114.9 268.1 A 9.58 9.58 0 0 0 124.48 277.68 L 124.48 268.1L114.9 268.1" fill="#010915"/><rect x="134.05" y="268.1" width="19.150000000000002" height="19.150000000000002" fill="#000000"/><rect x="134.05" y="268.1" width="9.58" height="9.58" fill="#08439a"/><path d="M 134.05 277.68 A 9.58 9.58 0 0 1  143.63000000000002 268.1 L 143.63000000000002 277.68L134.05 277.68" fill="#084298"/><rect x="210.65000000000003" y="268.1" width="19.150000000000002" height="19.150000000000002" fill="#000000"/><rect x="210.65" y="277.68" width="9.58" height="9.58" fill="#052d68"/><polygon points="210.65,277.68 220.23000000000002,277.68 210.65,287.26" fill="#020e21"/><rect x="229.8" y="268.1" width="19.150000000000002" height="19.150000000000002" fill="#000000"/><rect x="239.38" y="268.1" width="9.58" height="9.58" fill="#0c67ed"/><path d="M 239.38 268.1 A 9.58 9.58 0 0 0 248.96 277.68 L 248.96 268.1L239.38 268.1" fill="#031a3c"/><rect x="248.95" y="268.1" width="19.15" height="19.15" fill="#073982"/><rect x="248.95" y="268.1" width="19.15" height="19.15" fill="#0948a6"/><rect x="325.55" y="268.1" width="19.15" height="19.15" fill="#0948a6"/><rect x="325.55" y="268.1" width="19.15" height="19.15" fill="#01060e"/><rect x="344.70000000000005" y="268.1" width="19.150000000000002" height="19.150000000000002" fill="#000000"/><rect x="421.3" y="268.1" width="19.15" height="19.15" fill="#031838"/><path d="M 421.3 268.1 A 19.15 19.15 0 0 1 440.45 287.25 L 421.3 287.25L421.3 268.1" fill="#010b19"/><rect x="57.45" y="287.25000000000006" width="19.150000000000002" height="19.150000000000002" fill="#000000"/><rect x="57.45" y="287.25" width="9.58" height="9.58" fill="#094bad"/><path d="M 57.45 296.83 A 9.58 9.58 0 0 1  67.03 287.25 L 67.03 296.83L57.45 296.83" fill="#042656"/><rect x="67.03" y="287.25" width="9.58" height="9.58" fill="#0d6dfa"/><path d="M 67.03 287.25 A 9.58 9.58 0 0 1 76.61 296.83 L 67.03 296.83L67.03 287.25" fill="#08459f"/><rect x="114.9" y="287.25" width="19.15" height="19.15" fill="#04214c"/><polygon points="114.9,287.25 134.05,306.4 114.9,306.4" fill="#020d1f"/><rect x="268.1" y="287.25" width="19.15" height="19.15" fill="#094db1"/><polygon points="268.1,287.25 287.25,306.4 268.1,306.4" fill="#052e6a"/><rect x="306.40000000000003" y="287.25000000000006" width="19.150000000000002" height="19.150000000000002" fill="#000000"/><rect x="363.85" y="287.25000000000006" width="19.150000000000002" height="19.150000000000002" fill="#000000"/><rect x="19.15" y="306.4" width="19.15" height="19.15" fill="#0c67ee"/><path d="M 19.15 325.54999999999995 A 19.15 19.15 0 0 1  38.3 306.4 L 19.15 325.54999999999995 A 19.15 19.15 0 0 0 38.3 306.4" fill="#05295e"/><rect x="95.75000000000001" y="306.40000000000003" width="19.150000000000002" height="19.150000000000002" fill="#000000"/><rect x="105.33" y="315.98" width="9.58" height="9.58" fill="#0a52bc"/><path d="M 105.33 325.56 A 9.58 9.58 0 0 0 114.91 315.98 L 105.33 315.98L105.33 325.56" fill="#01060e"/><rect x="134.05" y="306.40000000000003" width="19.150000000000002" height="19.150000000000002" fill="#000000"/><rect x="134.05" y="306.4" width="9.58" height="9.58" fill="#063374"/><path d="M 134.05 315.97999999999996 A 9.58 9.58 0 0 1 143.63000000000002 306.4 L 143.63000000000002 308.79499999999996 A 7.1850000000000005 7.1850000000000005 0 0 0 136.44500000000002 315.97999999999996" fill="#0d6cf7"/><rect x="143.63" y="306.4" width="9.58" height="9.58" fill="#073d8d"/><path d="M 143.63 306.4 A 9.58 9.58 0 0 1 153.21 315.97999999999996 L 150.815 315.97999999999996 A 7.1850000000000005 7.1850000000000005 0 0 0 143.63 308.79499999999996" fill="#052a60"/><rect x="306.4" y="306.4" width="19.15" height="19.15" fill="#063171"/><polygon points="306.4,306.4 325.54999999999995,306.4 306.4,325.54999999999995" fill="#0847a3"/><rect x="325.55" y="306.4" width="19.15" height="19.15" fill="#0d6cf8"/><path d="M 325.55 306.4 A 19.15 19.15 0 0 1  344.7 325.54999999999995 L 325.55 306.4 A 19.15 19.15 0 0 0 344.7 325.54999999999995" fill="#073d8d"/><rect x="363.85" y="306.40000000000003" width="19.150000000000002" height="19.150000000000002" fill="#000000"/><rect x="363.85" y="306.4" width="9.58" height="9.58" fill="#031b3f"/><polygon points="373.43,306.4 373.43,315.97999999999996 363.85,315.97999999999996" fill="#031a3c"/><rect x="383.00000000000006" y="306.40000000000003" width="19.150000000000002" height="19.150000000000002" fill="#000000"/><rect x="383" y="315.98" width="9.58" height="9.58" fill="#020e21"/><path d="M 383 315.98 A 9.58 9.58 0 0 1 392.58 325.56 L 383 325.56L383 315.98" fill="#073d8b"/><rect x="392.58" y="315.98" width="9.58" height="9.58" fill="#0d6af5"/><path d="M 392.58 325.56 A 9.58 9.58 0 0 1  402.15999999999997 315.98 L 402.15999999999997 325.56L392.58 325.56" fill="#042657"/><rect x="402.15000000000003" y="306.40000000000003" width="19.150000000000002" height="19.150000000000002" fill="#000000"/><rect x="411.73" y="306.4" width="9.58" height="9.58" fill="#010811"/><polygon points="411.73,306.4 421.31,315.97999999999996 411.73,315.97999999999996" fill="#0b60de"/><rect x="402.15" y="315.98" width="9.58" height="9.58" fill="#052658"/><polygon points="402.15,315.98 411.72999999999996,315.98 411.72999999999996,325.56" fill="#041f48"/><rect x="440.45000000000005" y="306.40000000000003" width="19.150000000000002" height="19.150000000000002" fill="#000000"/><rect x="440.45" y="315.98" width="9.58" height="9.58" fill="#000307"/><path d="M 440.45 315.98 A 9.58 9.58 0 0 0 450.03 325.56 L 450.03 315.98L440.45 315.98" fill="#01050b"/><rect x="450.03" y="315.98" width="9.58" height="9.58" fill="#0b5ed8"/><path d="M 450.03 325.56 A 9.58 9.58 0 0 0 459.60999999999996 315.98 L 450.03 315.98L450.03 325.56" fill="#010711"/><rect x="38.3" y="325.55" width="19.15" height="19.15" fill="#042454"/><path d="M 38.3 325.55 A 19.15 19.15 0 0 1  57.449999999999996 344.7 L 38.3 325.55 A 19.15 19.15 0 0 0 57.449999999999996 344.7" fill="#0b5bd2"/><rect x="95.75000000000001" y="325.55" width="19.150000000000002" height="19.150000000000002" fill="#000000"/><rect x="95.75" y="325.55" width="9.58" height="9.58" fill="#020d1f"/><path d="M 95.75 325.55 A 9.58 9.58 0 0 0 105.33 335.13 L 105.33 325.55L95.75 325.55" fill="#042350"/><rect x="105.33" y="325.55" width="9.58" height="9.58" fill="#031d44"/><path d="M 105.33 335.13 A 9.58 9.58 0 0 0 114.91 325.55 L 105.33 325.55L105.33 335.13" fill="#02132c"/><rect x="134.05" y="325.55" width="19.150000000000002" height="19.150000000000002" fill="#000000"/><rect x="134.05" y="325.55" width="9.58" height="9.58" fill="#0d6dfc"/><polygon points="143.63000000000002,325.55 143.63000000000002,335.13 134.05,335.13" fill="#04204a"/><rect x="172.35000000000002" y="325.55" width="19.150000000000002" height="19.150000000000002" fill="#000000"/><rect x="248.95" y="325.55" width="19.15" height="19.15" fill="#04214b"/><polygon points="248.95,325.55 268.09999999999997,325.55 268.09999999999997,344.7" fill="#01050c"/><rect x="440.45" y="325.55" width="19.15" height="19.15" fill="#073d8d"/><polygon points="459.59999999999997,325.55 459.59999999999997,344.7 440.45,344.7" fill="#063171"/><rect x="0" y="344.70000000000005" width="19.150000000000002" height="19.150000000000002" fill="#000000"/><rect x="0" y="354.28" width="9.58" height="9.58" fill="#094bad"/><path d="M 0 354.28 A 9.58 9.58 0 0 0 9.58 363.85999999999996 L 9.58 361.465 A 7.1850000000000005 7.1850000000000005 0 0 1 2.395 354.28" fill="#0b5ad0"/><rect x="19.150000000000002" y="344.70000000000005" width="19.150000000000002" height="19.150000000000002" fill="#000000"/><rect x="28.73" y="344.7" width="9.58" height="9.58" fill="#01060d"/><path d="M 28.73 354.28 A 9.58 9.58 0 0 1  38.31 344.7 L 38.31 354.28L28.73 354.28" fill="#0d6bf7"/><rect x="28.73" y="354.28" width="9.58" height="9.58" fill="#073e8e"/><path d="M 28.73 354.28 A 9.58 9.58 0 0 0 38.31 363.85999999999996 L 38.31 354.28L28.73 354.28" fill="#031d43"/><rect x="57.45" y="344.70000000000005" width="19.150000000000002" height="19.150000000000002" fill="#000000"/><rect x="57.45" y="344.7" width="9.58" height="9.58" fill="#073e8e"/><circle cx="62.24" cy="349.49" r="4.79" fill="#0d6bf7"/><rect x="67.03" y="354.28" width="9.58" height="9.58" fill="#010915"/><rect x="67.03" y="354.28" width="9.58" height="9.58" fill="#041f47"/><rect x="76.60000000000001" y="344.70000000000005" width="19.150000000000002" height="19.150000000000002" fill="#000000"/><rect x="134.05" y="344.70000000000005" width="19.150000000000002" height="19.150000000000002" fill="#000000"/><rect x="134.05" y="354.28" width="9.58" height="9.58" fill="#084194"/><polygon points="134.05,354.28 143.63000000000002,354.28 143.63000000000002,363.85999999999996" fill="#01040a"/><rect x="191.5" y="344.7" width="19.15" height="19.15" fill="#073880"/><polygon points="191.5,344.7 210.65,344.7 210.65,363.84999999999997" fill="#020f22"/><rect x="210.65" y="344.7" width="19.15" height="19.15" fill="#02142f"/><path d="M 210.65 344.7 A 19.15 19.15 0 0 0 229.8 363.84999999999997 L 229.8 344.7L210.65 344.7" fill="#073f91"/><rect x="268.1" y="344.70000000000005" width="19.150000000000002" height="19.150000000000002" fill="#000000"/><rect x="268.1" y="354.28" width="9.58" height="9.58" fill="#000307"/><path d="M 268.1 354.28 A 9.58 9.58 0 0 0 277.68 363.85999999999996 L 277.68 354.28L268.1 354.28" fill="#041e44"/><rect x="306.40000000000003" y="344.70000000000005" width="19.150000000000002" height="19.150000000000002" fill="#000000"/><rect x="306.4" y="344.7" width="9.58" height="9.58" fill="#0b5cd3"/><polygon points="315.97999999999996,344.7 315.97999999999996,354.28 306.4,354.28" fill="#0d6af4"/><rect x="306.4" y="354.28" width="9.58" height="9.58" fill="#020d1f"/><polygon points="306.4,354.28 315.97999999999996,354.28 315.97999999999996,363.85999999999996" fill="#073d8d"/><rect x="315.98" y="354.28" width="9.58" height="9.58" fill="#041e45"/><polygon points="315.98,354.28 325.56,354.28 315.98,363.85999999999996" fill="#06306f"/><rect x="325.55" y="344.70000000000005" width="19.150000000000002" height="19.150000000000002" fill="#000000"/><rect x="363.85" y="344.70000000000005" width="19.150000000000002" height="19.150000000000002" fill="#000000"/><rect x="373.43" y="344.7" width="9.58" height="9.58" fill="#031531"/><path d="M 373.43 344.7 A 9.58 9.58 0 0 1 383.01 354.28 L 380.615 354.28 A 7.1850000000000005 7.1850000000000005 0 0 0 373.43 347.09499999999997" fill="#052658"/><rect x="363.85" y="354.28" width="9.58" height="9.58" fill="#0a54c1"/><path d="M 363.85 354.28 A 9.58 9.58 0 0 0 373.43 363.85999999999996 L 373.43 361.465 A 7.1850000000000005 7.1850000000000005 0 0 1 366.245 354.28" fill="#04224d"/><rect x="373.43" y="354.28" width="9.58" height="9.58" fill="#0d6bf6"/><path d="M 373.43 363.85999999999996 A 9.58 9.58 0 0 0 383.01 354.28 L 380.615 354.28 A 7.1850000000000005 7.1850000000000005 0 0 1 373.43 361.465" fill="#063477"/><rect x="402.15000000000003" y="344.70000000000005" width="19.150000000000002" height="19.150000000000002" fill="#000000"/><rect x="402.15" y="344.7" width="9.58" height="9.58" fill="#084399"/><polygon points="411.72999999999996,344.7 411.72999999999996,354.28 402.15,354.28" fill="#000204"/><rect x="411.73" y="344.7" width="9.58" height="9.58" fill="#010813"/><polygon points="411.73,344.7 421.31,354.28 411.73,354.28" fill="#0846a1"/><rect x="0" y="363.85" width="19.150000000000002" height="19.150000000000002" fill="#000000"/><rect x="9.58" y="363.85" width="9.58" height="9.58" fill="#0d6dfa"/><polygon points="9.58,363.85 19.16,373.43 9.58,373.43" fill="#073d8d"/><rect x="19.150000000000002" y="363.85" width="19.150000000000002" height="19.150000000000002" fill="#000000"/><rect x="57.45" y="363.85" width="19.150000000000002" height="19.150000000000002" fill="#000000"/><rect x="57.45" y="363.85" width="9.58" height="9.58" fill="#0a53c0"/><path d="M 57.45 363.85 A 9.58 9.58 0 0 1 67.03 373.43 L 57.45 373.43L57.45 363.85" fill="#031a3b"/><rect x="306.40000000000003" y="363.85" width="19.150000000000002" height="19.150000000000002" fill="#000000"/><rect x="306.4" y="363.85" width="9.58" height="9.58" fill="#0c67ee"/><path d="M 306.4 373.43 A 9.58 9.58 0 0 1 315.97999999999996 363.85 L 315.97999999999996 366.245 A 7.1850000000000005 7.1850000000000005 0 0 0 308.79499999999996 373.43" fill="#052d68"/><rect x="315.98" y="363.85" width="9.58" height="9.58" fill="#073f91"/><path d="M 315.98 363.85 A 9.58 9.58 0 0 1 325.56 373.43 L 323.165 373.43 A 7.1850000000000005 7.1850000000000005 0 0 0 315.98 366.245" fill="#031939"/><rect x="0" y="383.00000000000006" width="19.150000000000002" height="19.150000000000002" fill="#000000"/><rect x="9.58" y="383" width="9.58" height="9.58" fill="#000408"/><path d="M 9.58 383 A 9.58 9.58 0 0 1 19.16 392.58 L 9.58 392.58L9.58 383" fill="#031633"/><rect x="95.75000000000001" y="383.00000000000006" width="19.150000000000002" height="19.150000000000002" fill="#000000"/><rect x="95.75" y="383" width="9.58" height="9.58" fill="#052658"/><path d="M 95.75 383 A 9.58 9.58 0 0 0 105.33 392.58 L 105.33 383L95.75 383" fill="#094bad"/><rect x="95.75" y="392.58" width="9.58" height="9.58" fill="#010b19"/><path d="M 95.75 402.15999999999997 A 9.58 9.58 0 0 1  105.33 392.58 L 105.33 402.15999999999997L95.75 402.15999999999997" fill="#0b59cd"/><rect x="210.65000000000003" y="383.00000000000006" width="19.150000000000002" height="19.150000000000002" fill="#000000"/><rect x="220.23" y="383" width="9.58" height="9.58" fill="#0d6af4"/><rect x="220.23" y="383" width="9.58" height="9.58" fill="#042657"/><rect x="210.65" y="392.58" width="9.58" height="9.58" fill="#02142e"/><circle cx="215.44" cy="397.37" r="4.79" fill="#0b5dd5"/><rect x="229.8" y="383.00000000000006" width="19.150000000000002" height="19.150000000000002" fill="#000000"/><rect x="239.38" y="383" width="9.58" height="9.58" fill="#0c63e4"/><path d="M 239.38 392.58 A 9.58 9.58 0 0 1  248.96 383 L 248.96 392.58L239.38 392.58" fill="#0a52bd"/><rect x="229.8" y="392.58" width="9.58" height="9.58" fill="#031b3e"/><path d="M 229.8 402.15999999999997 A 9.58 9.58 0 0 0 239.38000000000002 392.58 L 229.8 392.58L229.8 402.15999999999997" fill="#0a53be"/><rect x="248.95000000000002" y="383.00000000000006" width="19.150000000000002" height="19.150000000000002" fill="#000000"/><rect x="258.53" y="383" width="9.58" height="9.58" fill="#020e1f"/><path d="M 258.53 392.58 A 9.58 9.58 0 0 0 268.10999999999996 383 L 258.53 383L258.53 392.58" fill="#0b60dd"/><rect x="19.15" y="402.15" width="19.15" height="19.15" fill="#0c63e3"/><polygon points="19.15,402.15 38.3,402.15 19.15,421.29999999999995" fill="#0a56c6"/><rect x="76.60000000000001" y="402.15000000000003" width="19.150000000000002" height="19.150000000000002" fill="#000000"/><rect x="76.6" y="402.15" width="9.58" height="9.58" fill="#031838"/><path d="M 76.6 411.72999999999996 A 9.58 9.58 0 0 0 86.17999999999999 402.15 L 76.6 402.15L76.6 411.72999999999996" fill="#084399"/><rect x="86.18" y="402.15" width="9.58" height="9.58" fill="#020f23"/><path d="M 86.18 402.15 A 9.58 9.58 0 0 0 95.76 411.72999999999996 L 95.76 402.15L86.18 402.15" fill="#094bad"/><rect x="86.18" y="411.73" width="9.58" height="9.58" fill="#0846a0"/><path d="M 86.18 421.31 A 9.58 9.58 0 0 1  95.76 411.73 L 95.76 421.31L86.18 421.31" fill="#031531"/><rect x="134.05" y="402.15" width="19.15" height="19.15" fill="#0a59cc"/><polygon points="134.05,402.15 153.20000000000002,421.29999999999995 134.05,421.29999999999995" fill="#021530"/><rect x="153.20000000000002" y="402.15000000000003" width="19.150000000000002" height="19.150000000000002" fill="#000000"/><rect x="153.2" y="402.15" width="9.58" height="9.58" fill="#010a17"/><path d="M 153.2 411.72999999999996 A 9.58 9.58 0 0 0 162.78 402.15 L 153.2 402.15L153.2 411.72999999999996" fill="#0b5ed9"/><rect x="162.78" y="402.15" width="9.58" height="9.58" fill="#084195"/><path d="M 162.78 402.15 A 9.58 9.58 0 0 0 172.36 411.72999999999996 L 172.36 402.15L162.78 402.15" fill="#042555"/><rect x="153.2" y="411.73" width="9.58" height="9.58" fill="#02142e"/><path d="M 153.2 411.73 A 9.58 9.58 0 0 1 162.78 421.31 L 153.2 421.31L153.2 411.73" fill="#052e6b"/><rect x="210.65000000000003" y="402.15000000000003" width="19.150000000000002" height="19.150000000000002" fill="#000000"/><rect x="220.23" y="411.73" width="9.58" height="9.58" fill="#0c63e3"/><polygon points="220.23,411.73 229.81,411.73 229.81,421.31" fill="#094eb4"/><rect x="344.7" y="402.15" width="19.15" height="19.15" fill="#02132b"/><polygon points="363.84999999999997,402.15 363.84999999999997,421.29999999999995 344.7,421.29999999999995" fill="#0847a4"/><rect x="363.85" y="402.15" width="19.15" height="19.15" fill="#06377e"/><path d="M 363.85 421.29999999999995 A 19.15 19.15 0 0 0 383 402.15 L 363.85 402.15L363.85 421.29999999999995" fill="#07377f"/><rect x="440.45000000000005" y="402.15000000000003" width="19.150000000000002" height="19.150000000000002" fill="#000000"/><rect x="440.45" y="402.15" width="9.58" height="9.58" fill="#0d6af4"/><path d="M 440.45 411.72999999999996 A 9.58 9.58 0 0 1  450.03 402.15 L 450.03 411.72999999999996L440.45 411.72999999999996" fill="#094bac"/><rect x="450.03" y="402.15" width="9.58" height="9.58" fill="#08439a"/><path d="M 450.03 402.15 A 9.58 9.58 0 0 1 459.60999999999996 411.72999999999996 L 450.03 411.72999999999996L450.03 402.15" fill="#04214c"/><rect x="450.03" y="411.73" width="9.58" height="9.58" fill="#0c64e7"/><path d="M 450.03 421.31 A 9.58 9.58 0 0 0 459.60999999999996 411.73 L 450.03 411.73L450.03 421.31" fill="#084196"/><rect x="19.150000000000002" y="421.30000000000007" width="19.150000000000002" height="19.150000000000002" fill="#000000"/><rect x="19.15" y="430.88" width="9.58" height="9.58" fill="#073e90"/><circle cx="23.939999999999998" cy="435.67" r="4.79" fill="#0a54c1"/><rect x="57.45" y="421.30000000000007" width="19.150000000000002" height="19.150000000000002" fill="#000000"/><rect x="67.03" y="430.88" width="9.58" height="9.58" fill="#000101"/><path d="M 67.03 440.46 A 9.58 9.58 0 0 0 76.61 430.88 L 67.03 430.88L67.03 440.46" fill="#06357a"/><rect x="325.55" y="421.30000000000007" width="19.150000000000002" height="19.150000000000002" fill="#000000"/><rect x="335.13" y="421.3" width="9.58" height="9.58" fill="#073982"/><path d="M 335.13 421.3 A 9.58 9.58 0 0 0 344.71 430.88 L 344.71 421.3L335.13 421.3" fill="#000000"/><rect x="0" y="440.45" width="19.15" height="19.15" fill="#08459e"/><rect x="0" y="440.45" width="19.15" height="19.15" fill="#04234f"/><rect x="19.150000000000002" y="440.45000000000005" width="19.150000000000002" height="19.150000000000002" fill="#000000"/><rect x="38.300000000000004" y="440.45000000000005" width="19.150000000000002" height="19.150000000000002" fill="#000000"/><rect x="172.35" y="440.45" width="19.15" height="19.15" fill="#031b3e"/><rect x="172.35" y="440.45" width="19.15" height="19.15" fill="#05295f"/><rect x="191.50000000000003" y="440.45000000000005" width="19.150000000000002" height="19.150000000000002" fill="#000000"/><rect x="191.5" y="440.45" width="9.58" height="9.58" fill="#0d6af4"/><polygon points="201.08,440.45 201.08,450.03 191.5,450.03" fill="#0c69f1"/><rect x="201.08" y="450.03" width="9.58" height="9.58" fill="#010914"/><polygon points="201.08,450.03 210.66000000000003,450.03 201.08,459.60999999999996" fill="#04204a"/><rect x="402.15000000000003" y="440.45000000000005" width="19.150000000000002" height="19.150000000000002" fill="#000000"/><rect x="402.15" y="450.03" width="9.58" height="9.58" fill="#0b60dd"/><circle cx="406.94" cy="454.82" r="4.79" fill="#094fb6"/><rect x="411.73" y="450.03" width="9.58" height="9.58" fill="#0d6cf9"/><rect x="411.73" y="450.03" width="9.58" height="9.58" fill="#0d6dfb"/><rect x="421.30000000000007" y="440.45000000000005" width="19.150000000000002" height="19.150000000000002" fill="#000000"/><rect x="421.3" y="440.45" width="9.58" height="9.58" fill="#031d42"/><path d="M 421.3 440.45 A 9.58 9.58 0 0 1 430.88 450.03 L 421.3 450.03L421.3 440.45" fill="#0a58c9"/></g></svg>